<svg xmlns="http://www.w3.org/2000/svg" viewBox="0 0 20 20">
  <!-- G Logo -->
  <path d="M17.5 10.2c0-.6-.1-1.2-.2-1.8H10v3.4h4.2c-.2 1-.8 1.9-1.7 2.5v2.1h2.7c1.6-1.5 2.3-3.7 2.3-6.2z" fill="#4285F4"/>
  <path d="M10 18c2.3 0 4.2-.8 5.6-2.1l-2.7-2.1c-.8.5-1.7.8-2.9.8-2.2 0-4.1-1.5-4.8-3.5H2.5v2.2C3.9 15.9 6.7 18 10 18z" fill="#34A853"/>
  <path d="M5.2 11.1c-.2-.5-.3-1-.3-1.6s.1-1.1.3-1.6V5.7H2.5C1.9 7 1.5 8.4 1.5 10s.4 3 1 4.3l2.7-2.2z" fill="#FBBC05"/>
  <path d="M10 4.4c1.2 0 2.3.4 3.2 1.2l2.4-2.4C14.1 1.8 12.2 1 10 1 6.7 1 3.9 3.1 2.5 5.7l2.7 2.2c.7-2 2.6-3.5 4.8-3.5z" fill="#EA4335"/>
</svg>